<svg xmlns="http://www.w3.org/2000/svg" width="512" height="512" viewBox="0 0 512 512"><defs><linearGradient id="a" x1=".5" x2=".5" y2="1" gradientUnits="objectBoundingBox"><stop offset="0" stop-color="#ffb508"/><stop offset="1" stop-color="#fc2a02"/></linearGradient></defs><g transform="translate(-13015 -2002)"><circle cx="256" cy="256" r="256" fill="url(#a)" data-name="Ellipse 22-2" transform="translate(13015 2002)"/><g data-name="cardano"><path fill="#fff" d="M347.974,1785.855c7.6-3.962,16.872,5.229,12.835,12.819-2.344,6.187-11.233,7.833-15.774,3.116-4.811-4.526-3.242-13.473,2.939-15.936m-81.717,8.809c4.615-1.9,10.458,2.329,9.987,7.359.49,5.461-6.187,9.48-10.892,6.885-6.233-2.414-5.52-12.532.9-14.243m167.369,14.4c-7.212-.871-8.354-12.211-1.41-14.494,5.386-2.627,10.327,2.3,11.115,7.4-1.129,4.359-4.779,8.35-9.7,7.09m-148.777,20.384c7.716-4.88,18.726,2.388,17.539,11.35-.4,9.049-12.42,14.292-19.2,8.174-6.557-4.805-5.564-15.83,1.663-19.525m117.791,5.178c3.442-8.872,17.391-9.14,21.309-.5,3.873,6.721-.891,15.043-7.791,17.328-9.14,1.706-17.822-8.174-13.518-16.825m-64.509,16.319c-.075-7.625,6.871-13.307,14.118-13.827,4.807.964,10.046,3.012,12.108,7.862,3.843,6.691.43,15.9-6.513,18.976-3.176,1.78-6.93,1.112-10.388.9-5.286-2.6-9.738-7.685-9.325-13.916M216.6,1862.055c7.049-4.333,16.558,3.575,13.89,11.232-1.469,6.623-10.372,9.317-15.462,5.089-5.433-3.966-4.576-13.487,1.572-16.321m260.964-.014c5.98-4.643,15.849.683,15.136,8.234.4,6.885-8.131,12.077-14.067,8.532-6.538-2.939-7.2-13-1.068-16.765m-105.261,13.707c9.869-3.545,21.59.7,27.215,9.5,7.42,10.756,3.472,27.136-8.042,33.308-11.931,7.3-29.351,1.112-33.758-12.211-5-11.927,2.285-26.854,14.585-30.592m-57.9,1.173c10.937-5.163,25.656-.831,30.939,10.357,6.217,10.89,1.41,26.054-9.7,31.676-11.129,6.32-26.829,1.529-32.215-10.163-6.039-11.307-.676-26.664,10.981-31.87m-57.982,19.816c.831-7.047,7.479-11.632,14.186-12.107a15.628,15.628,0,0,1,13.785,13.8c-.474,7.24-6.069,14.317-13.741,14.273-8.441.727-15.842-7.671-14.229-15.964m171.242-10.575c8.666-5.044,20.7,2.3,20.314,12.255.594,10.548-12.724,17.982-21.353,11.795-8.964-5.152-8.265-19.662,1.039-24.049m-136.83,37.175c10.135-2.789,21.724,1.989,26.7,11.3,5.445,9.377,3.219,22.4-5.238,29.282-10.846,10.088-30.85,6.038-36.623-7.73-6.634-12.621,1.424-29.534,15.165-32.856m109.822-.052c9.853-2.818,21.428.98,26.725,9.956,7,10.266,3.66,25.578-6.766,32.2-10.921,7.685-27.838,3.65-33.848-8.366-7.286-12.429.045-29.994,13.89-33.785M225.657,1935.01c8.755-3.312,18.46,6.35,14.913,15.029-2.166,7.908-13.311,10.831-19.068,5-6.737-5.477-4.245-17.659,4.155-20.029m237.3,12.6a13.4,13.4,0,0,1,12.494-14.08c6,.95,11.826,5.787,11.352,12.314.549,8.621-9.839,14.48-17.184,10.43-3.442-1.75-5.208-5.281-6.662-8.664m-280.348-8.346c5.267-2.3,11.782,2.266,10.58,8.115-.282,6.623-10.06,9.17-13.653,3.636C176.362,1947.172,178.262,1941.246,182.609,1939.264Zm332.108-.132c3.709-2.641,9.659-.743,11.129,3.59,2.492,4.732-2.078,11.216-7.4,10.416-7.477.681-9.9-10.714-3.725-14.006m-195.264,31.793c13.86-3.6,28.759,7.953,28.846,22.224.9,14.421-13.769,27.209-27.957,23.878-10.967-1.766-19.572-12.33-19.216-23.411a23.77,23.77,0,0,1,18.327-22.691m54.889-.03c14.067-3.932,29.411,7.833,29.188,22.434.742,14.155-13.473,26.512-27.364,23.7-13.072-1.691-22.718-16.053-19.068-28.738a23.673,23.673,0,0,1,17.245-17.4m-105.835,8.789c9.734-1.661,18.861,9.2,14.913,18.442-2.879,9.849-17.213,12.521-23.551,4.476-7.434-7.727-1.884-21.851,8.638-22.918m160.971.434c8.68-3.636,19.335,3.873,18.667,13.294.349,10.371-12.8,17.522-21.294,11.469-9.614-5.435-7.864-21.428,2.627-24.762m44.993,45.129c-3.4-6.336,2.775-14.733,9.809-13.56,3.5-.059,5.95,2.7,8.192,5.014.46,3.754,1.232,8.234-1.884,11.127-4.232,5.356-13.818,3.828-16.117-2.581m-257.9-11.8c6.574-4.377,16.035,2.151,14.557,9.837-.786,6.8-9.349,10.683-14.989,6.825-6.053-3.5-5.83-13.471.432-16.663m129.881,14.233c8.607-3.8,19.572,3.7,18.756,13.175.638,10.475-12.924,17.729-21.339,11.439-9.347-5.4-7.789-21.292,2.583-24.614M286.3,2041.71c7.331-3.857,17.168,2.8,16.5,11.009.223,6.737-6.351,12.478-13,11.483-5.506-.118-9.1-5.055-10.862-9.748.091-5.116,2.2-10.813,7.36-12.743m121.857.118c7.538-4.659,18.252,2.032,17.539,10.806.193,9.17-11.915,15.043-18.934,9.02-6.8-4.722-5.966-16.072,1.394-19.826m21.191,52.388c-3.353-5.074.594-11.186,6.039-12.344,4.378.891,9.008,4.183,8.087,9.259-.638,6.869-10.684,8.976-14.127,3.085m-168.211-4.407c1.335-4.021,4.57-8.018,9.3-6.972,6.9.49,8.948,10.89,2.909,14.1-5.431,3.662-11.732-1.353-12.213-7.123m81.154,4.614c1.321-5.949,9.022-8.842,14.1-5.682,3.353,1.44,4.333,5.192,5.194,8.382-.46,1.661-.871,3.324-1.276,4.985-2.078,2.463-4.748,4.926-8.206,4.837-6.426.753-12.223-6.512-9.809-12.521" data-name="Path 322" transform="translate(12919.045 312.098)"/></g></g></svg>