<svg xmlns="http://www.w3.org/2000/svg" width="512" height="512"><defs><linearGradient id="a" x1=".5" x2=".5" y2="1" gradientUnits="objectBoundingBox"><stop offset="0" stop-color="#ffb508"/><stop offset="1" stop-color="#fc2a02"/></linearGradient></defs><g transform="translate(-13015 -1402)"><circle cx="256" cy="256" r="256" fill="url(#a)" data-name="Ellipse 22-2" transform="translate(13015 1402)"/><g data-name="Group 1321"><g fill="#fff" data-name="Group 1320"><g data-name="Group 1313"><path d="m13173.035 1758.557 11.05-22.1h132.709a33.2 33.2 0 0 0 33.149-33.149 33.2 33.2 0 0 0-33.149-33.151h-110.61v-22.1h110.61a55.266 55.266 0 0 1 55.249 55.249 55.266 55.266 0 0 1-55.249 55.251Z" data-name="Path 1"/><path d="M13316.794 1764.643h-153.681l17.251-34.389h136.543a27.061 27.061 0 0 0 0-54.121H13200.1v-34.39h116.7a61.45 61.45 0 0 1 .041 122.9h-.043Zm-133.837-12.29h133.837a49.16 49.16 0 0 0 0-98.32h-104.408v9.81h104.408a39.351 39.351 0 1 1 .56 78.7h-129.436Z" data-name="Path 300"/></g><g data-name="Group 1314"><path d="m13173.035 1558.306 11.05 22.1h117.938a33.2 33.2 0 0 1 33.149 33.149 33.2 33.2 0 0 1-33.149 33.151h-84.788v22.1h84.79a55.266 55.266 0 0 0 55.249-55.249 55.265 55.265 0 0 0-55.251-55.251Z" data-name="Path 2"/><path d="M13302.023 1675.005h-90.878v-34.39h90.878a27.061 27.061 0 0 0 0-54.121h-121.772L13163 1552.1h138.911a61.45 61.45 0 0 1 .113 122.9Zm-78.588-12.29h78.588a49.16 49.16 0 1 0 0-98.32h-119.066l4.961 9.809h114.105a39.351 39.351 0 0 1 0 78.7h-78.588Z" data-name="Path 301"/></g><g data-name="Group 1315"><path d="M13206.184 1559.434h22.099v199.008h-22.099z" data-name="Rectangle 2"/><path d="M13234.484 1764.645h-34.384v-211.3h34.389Zm-22.1-12.29h9.816v-186.72h-9.81v186.72Z" data-name="Path 302"/></g><g data-name="Group 1316"><path d="M13233.245 1525.044h22.099v44.199h-22.099z" data-name="Rectangle 3"/><path d="M13258.388 1572.4h-28.3V1522h28.3Zm-22.1-6.2h16.012v-38.11h-16.012Z" data-name="Path 303"/></g><g data-name="Group 1317"><path d="M13281.164 1525.044h22.099v44.199h-22.099z" data-name="Rectangle 4"/><path d="M13306.307 1572.4h-28.3V1522h28.3Zm-22.1-6.2h16.011v-38.11h-16.011Z" data-name="Path 304"/></g><g data-name="Group 1318"><path d="M13233.245 1746.264h22.099v44.199h-22.099z" data-name="Rectangle 5"/><path d="M13258.388 1793.507h-28.3v-50.4h28.3Zm-22.1-6.089h16.012v-38.111h-16.012Z" data-name="Path 305"/></g><g data-name="Group 1319"><path d="M13281.164 1746.264h22.099v44.199h-22.099z" data-name="Rectangle 6"/><path d="M13306.307 1793.507h-28.3v-50.4h28.3Zm-22.1-6.089h16.011v-38.111h-16.011Z" data-name="Path 306"/></g></g></g></g></svg>